<mxfile host="app.diagrams.net" agent="Mozilla/5.0 (X11; Linux x86_64; rv:132.0) Gecko/20100101 Firefox/132.0" version="24.8.4">
  <diagram name="UI" id="J5njl0FX4pREGRQ1qpST">
    <mxGraphModel dx="2334" dy="758" grid="0" gridSize="10" guides="1" tooltips="1" connect="1" arrows="1" fold="1" page="1" pageScale="1" pageWidth="900" pageHeight="1600" math="0" shadow="0">
      <root>
        <mxCell id="0" />
        <mxCell id="1" parent="0" />
        <mxCell id="IvysYTELjsWq8xflthgH-1" value="Home Page Examples" style="text;html=1;align=left;verticalAlign=middle;whiteSpace=wrap;rounded=0;" vertex="1" parent="1">
          <mxGeometry width="130" height="30" as="geometry" />
        </mxCell>
        <mxCell id="IvysYTELjsWq8xflthgH-2" value="" style="rounded=0;whiteSpace=wrap;html=1;" vertex="1" parent="1">
          <mxGeometry x="-2" y="84" width="960" height="540" as="geometry" />
        </mxCell>
        <mxCell id="IvysYTELjsWq8xflthgH-3" value="1 : Sidebar on left : Visible from start : Main timeline shown : Has quick creation menu : User profile is top center left" style="text;html=1;align=left;verticalAlign=middle;whiteSpace=wrap;rounded=0;" vertex="1" parent="1">
          <mxGeometry y="50" width="960" height="30" as="geometry" />
        </mxCell>
        <mxCell id="IvysYTELjsWq8xflthgH-4" value="" style="endArrow=none;html=1;rounded=0;entryX=0.133;entryY=0.007;entryDx=0;entryDy=0;entryPerimeter=0;exitX=0.138;exitY=0.996;exitDx=0;exitDy=0;exitPerimeter=0;" edge="1" parent="1">
          <mxGeometry width="50" height="50" relative="1" as="geometry">
            <mxPoint x="144.8" y="617.0300000000002" as="sourcePoint" />
            <mxPoint x="140.00000000000006" y="82.96999999999997" as="targetPoint" />
          </mxGeometry>
        </mxCell>
        <mxCell id="IvysYTELjsWq8xflthgH-5" value="" style="endArrow=none;html=1;rounded=0;entryX=0.133;entryY=0.007;entryDx=0;entryDy=0;entryPerimeter=0;exitX=0.138;exitY=0.996;exitDx=0;exitDy=0;exitPerimeter=0;" edge="1" parent="1">
          <mxGeometry width="50" height="50" relative="1" as="geometry">
            <mxPoint x="144.8" y="617.0300000000002" as="sourcePoint" />
            <mxPoint x="140.00000000000006" y="82.96999999999997" as="targetPoint" />
          </mxGeometry>
        </mxCell>
        <mxCell id="IvysYTELjsWq8xflthgH-7" value="" style="endArrow=none;html=1;rounded=0;entryX=0.133;entryY=0.007;entryDx=0;entryDy=0;entryPerimeter=0;exitX=0.138;exitY=0.996;exitDx=0;exitDy=0;exitPerimeter=0;" edge="1" parent="1">
          <mxGeometry width="50" height="50" relative="1" as="geometry">
            <mxPoint x="145.8" y="617.0300000000002" as="sourcePoint" />
            <mxPoint x="141.00000000000006" y="82.96999999999997" as="targetPoint" />
          </mxGeometry>
        </mxCell>
        <mxCell id="IvysYTELjsWq8xflthgH-8" value="PP" style="ellipse;whiteSpace=wrap;html=1;aspect=fixed;" vertex="1" parent="1">
          <mxGeometry x="31" y="104" width="80" height="80" as="geometry" />
        </mxCell>
        <mxCell id="IvysYTELjsWq8xflthgH-9" value="Username" style="text;html=1;align=center;verticalAlign=middle;whiteSpace=wrap;rounded=0;" vertex="1" parent="1">
          <mxGeometry x="41" y="194" width="60" height="30" as="geometry" />
        </mxCell>
        <mxCell id="IvysYTELjsWq8xflthgH-14" value="" style="line;strokeWidth=2;html=1;" vertex="1" parent="1">
          <mxGeometry x="9" y="222" width="124" height="10" as="geometry" />
        </mxCell>
        <mxCell id="IvysYTELjsWq8xflthgH-15" value="Home" style="text;html=1;align=center;verticalAlign=middle;whiteSpace=wrap;rounded=0;" vertex="1" parent="1">
          <mxGeometry x="41" y="241" width="60" height="30" as="geometry" />
        </mxCell>
        <mxCell id="IvysYTELjsWq8xflthgH-16" value="Discover" style="text;html=1;align=center;verticalAlign=middle;whiteSpace=wrap;rounded=0;" vertex="1" parent="1">
          <mxGeometry x="41" y="262" width="60" height="30" as="geometry" />
        </mxCell>
        <mxCell id="IvysYTELjsWq8xflthgH-17" value="My Timelines" style="text;html=1;align=center;verticalAlign=middle;whiteSpace=wrap;rounded=0;" vertex="1" parent="1">
          <mxGeometry x="33" y="288" width="76" height="30" as="geometry" />
        </mxCell>
        <mxCell id="IvysYTELjsWq8xflthgH-18" value="" style="shape=curlyBracket;whiteSpace=wrap;html=1;rounded=1;labelPosition=left;verticalLabelPosition=middle;align=right;verticalAlign=middle;fillColor=#f8cecc;strokeColor=#b85450;" vertex="1" parent="1">
          <mxGeometry x="-36" y="226" width="20" height="393" as="geometry" />
        </mxCell>
        <mxCell id="IvysYTELjsWq8xflthgH-20" value="Seems like a lot of wasted space" style="text;html=1;align=center;verticalAlign=middle;whiteSpace=wrap;rounded=0;rotation=270;fillColor=#f8cecc;strokeColor=#b85450;" vertex="1" parent="1">
          <mxGeometry x="-152" y="407.5" width="185" height="30" as="geometry" />
        </mxCell>
        <mxCell id="IvysYTELjsWq8xflthgH-23" value="&lt;div&gt;Main Timeline Goes Here &lt;br&gt;&lt;/div&gt;&lt;div&gt;--&lt;/div&gt;&lt;div&gt;Its the timeline that basically shows &quot;All&quot; the publicly posted entries of &quot;All&quot; timelines, scrollable on the main timeline&lt;br&gt;&lt;/div&gt;" style="rounded=0;whiteSpace=wrap;html=1;fillColor=#ffe6cc;strokeColor=#d79b00;" vertex="1" parent="1">
          <mxGeometry x="153" y="94" width="796" height="516" as="geometry" />
        </mxCell>
        <mxCell id="IvysYTELjsWq8xflthgH-24" value="Timeline Examples" style="text;html=1;align=left;verticalAlign=middle;whiteSpace=wrap;rounded=0;" vertex="1" parent="1">
          <mxGeometry y="808" width="108" height="30" as="geometry" />
        </mxCell>
        <mxCell id="IvysYTELjsWq8xflthgH-25" value="" style="rounded=0;whiteSpace=wrap;html=1;" vertex="1" parent="1">
          <mxGeometry y="890" width="960" height="540" as="geometry" />
        </mxCell>
        <mxCell id="IvysYTELjsWq8xflthgH-26" value="1 : Using blocks and stacking them dependent on amount of timeline entries | With empty dates represented" style="text;html=1;align=left;verticalAlign=middle;whiteSpace=wrap;rounded=0;" vertex="1" parent="1">
          <mxGeometry x="-1" y="860" width="959" height="30" as="geometry" />
        </mxCell>
        <mxCell id="IvysYTELjsWq8xflthgH-27" value="" style="line;strokeWidth=2;html=1;" vertex="1" parent="1">
          <mxGeometry x="25" y="1155" width="894" height="10" as="geometry" />
        </mxCell>
        <mxCell id="IvysYTELjsWq8xflthgH-28" value="&lt;ul&gt;&lt;li&gt;&lt;font color=&quot;#f66151&quot;&gt;Questions&lt;/font&gt;&lt;/li&gt;&lt;ul&gt;&lt;li&gt;&lt;font color=&quot;#f66151&quot;&gt;Do I show &quot;empty&quot; dates ?&lt;/font&gt;&lt;/li&gt;&lt;li&gt;&lt;font color=&quot;#f66151&quot;&gt;How should they stack ? Prefer top / bottom for uneven ?&lt;/font&gt;&lt;/li&gt;&lt;li&gt;&lt;font color=&quot;#f66151&quot;&gt;If it gets &quot;too long&quot; how should it navigate ?&lt;/font&gt;&lt;/li&gt;&lt;li&gt;&lt;font color=&quot;#f66151&quot;&gt;In this setup, for the Home Page Main Timeline, It would basically just be a page of blocks. Basically looking like a grid&lt;br&gt;&lt;/font&gt;&lt;/li&gt;&lt;/ul&gt;&lt;/ul&gt;" style="text;strokeColor=none;fillColor=none;html=1;whiteSpace=wrap;verticalAlign=top;overflow=hidden;" vertex="1" parent="1">
          <mxGeometry y="1430" width="961" height="171" as="geometry" />
        </mxCell>
        <mxCell id="IvysYTELjsWq8xflthgH-30" value="" style="whiteSpace=wrap;html=1;aspect=fixed;" vertex="1" parent="1">
          <mxGeometry x="56" y="1145" width="30" height="30" as="geometry" />
        </mxCell>
        <mxCell id="IvysYTELjsWq8xflthgH-31" value="" style="whiteSpace=wrap;html=1;aspect=fixed;" vertex="1" parent="1">
          <mxGeometry x="86" y="1145" width="30" height="30" as="geometry" />
        </mxCell>
        <mxCell id="IvysYTELjsWq8xflthgH-32" value="" style="whiteSpace=wrap;html=1;aspect=fixed;" vertex="1" parent="1">
          <mxGeometry x="116" y="1145" width="30" height="30" as="geometry" />
        </mxCell>
        <mxCell id="IvysYTELjsWq8xflthgH-33" value="" style="whiteSpace=wrap;html=1;aspect=fixed;" vertex="1" parent="1">
          <mxGeometry x="146" y="1145" width="30" height="30" as="geometry" />
        </mxCell>
        <mxCell id="IvysYTELjsWq8xflthgH-34" value="" style="whiteSpace=wrap;html=1;aspect=fixed;" vertex="1" parent="1">
          <mxGeometry x="177" y="1145" width="30" height="30" as="geometry" />
        </mxCell>
        <mxCell id="IvysYTELjsWq8xflthgH-35" value="" style="whiteSpace=wrap;html=1;aspect=fixed;" vertex="1" parent="1">
          <mxGeometry x="207" y="1145" width="30" height="30" as="geometry" />
        </mxCell>
        <mxCell id="IvysYTELjsWq8xflthgH-36" value="" style="whiteSpace=wrap;html=1;aspect=fixed;" vertex="1" parent="1">
          <mxGeometry x="237" y="1145" width="30" height="30" as="geometry" />
        </mxCell>
        <mxCell id="IvysYTELjsWq8xflthgH-37" value="" style="whiteSpace=wrap;html=1;aspect=fixed;" vertex="1" parent="1">
          <mxGeometry x="267" y="1145" width="30" height="30" as="geometry" />
        </mxCell>
        <mxCell id="IvysYTELjsWq8xflthgH-38" value="" style="whiteSpace=wrap;html=1;aspect=fixed;" vertex="1" parent="1">
          <mxGeometry x="298" y="1145" width="30" height="30" as="geometry" />
        </mxCell>
        <mxCell id="IvysYTELjsWq8xflthgH-39" value="" style="whiteSpace=wrap;html=1;aspect=fixed;" vertex="1" parent="1">
          <mxGeometry x="328" y="1145" width="30" height="30" as="geometry" />
        </mxCell>
        <mxCell id="IvysYTELjsWq8xflthgH-40" value="" style="whiteSpace=wrap;html=1;aspect=fixed;" vertex="1" parent="1">
          <mxGeometry x="358" y="1145" width="30" height="30" as="geometry" />
        </mxCell>
        <mxCell id="IvysYTELjsWq8xflthgH-41" value="" style="whiteSpace=wrap;html=1;aspect=fixed;" vertex="1" parent="1">
          <mxGeometry x="388" y="1145" width="30" height="30" as="geometry" />
        </mxCell>
        <mxCell id="IvysYTELjsWq8xflthgH-42" value="" style="whiteSpace=wrap;html=1;aspect=fixed;" vertex="1" parent="1">
          <mxGeometry x="419" y="1145" width="30" height="30" as="geometry" />
        </mxCell>
        <mxCell id="IvysYTELjsWq8xflthgH-43" value="" style="whiteSpace=wrap;html=1;aspect=fixed;" vertex="1" parent="1">
          <mxGeometry x="449" y="1145" width="30" height="30" as="geometry" />
        </mxCell>
        <mxCell id="IvysYTELjsWq8xflthgH-44" value="" style="whiteSpace=wrap;html=1;aspect=fixed;" vertex="1" parent="1">
          <mxGeometry x="479" y="1145" width="30" height="30" as="geometry" />
        </mxCell>
        <mxCell id="IvysYTELjsWq8xflthgH-45" value="" style="whiteSpace=wrap;html=1;aspect=fixed;" vertex="1" parent="1">
          <mxGeometry x="509" y="1145" width="30" height="30" as="geometry" />
        </mxCell>
        <mxCell id="IvysYTELjsWq8xflthgH-46" value="" style="whiteSpace=wrap;html=1;aspect=fixed;" vertex="1" parent="1">
          <mxGeometry x="540" y="1145" width="30" height="30" as="geometry" />
        </mxCell>
        <mxCell id="IvysYTELjsWq8xflthgH-47" value="" style="whiteSpace=wrap;html=1;aspect=fixed;" vertex="1" parent="1">
          <mxGeometry x="570" y="1145" width="30" height="30" as="geometry" />
        </mxCell>
        <mxCell id="IvysYTELjsWq8xflthgH-48" value="" style="whiteSpace=wrap;html=1;aspect=fixed;" vertex="1" parent="1">
          <mxGeometry x="600" y="1145" width="30" height="30" as="geometry" />
        </mxCell>
        <mxCell id="IvysYTELjsWq8xflthgH-49" value="" style="whiteSpace=wrap;html=1;aspect=fixed;" vertex="1" parent="1">
          <mxGeometry x="630" y="1145" width="30" height="30" as="geometry" />
        </mxCell>
        <mxCell id="IvysYTELjsWq8xflthgH-50" value="" style="whiteSpace=wrap;html=1;aspect=fixed;" vertex="1" parent="1">
          <mxGeometry x="661" y="1145" width="30" height="30" as="geometry" />
        </mxCell>
        <mxCell id="IvysYTELjsWq8xflthgH-51" value="" style="whiteSpace=wrap;html=1;aspect=fixed;" vertex="1" parent="1">
          <mxGeometry x="691" y="1145" width="30" height="30" as="geometry" />
        </mxCell>
        <mxCell id="IvysYTELjsWq8xflthgH-52" value="" style="whiteSpace=wrap;html=1;aspect=fixed;" vertex="1" parent="1">
          <mxGeometry x="721" y="1145" width="30" height="30" as="geometry" />
        </mxCell>
        <mxCell id="IvysYTELjsWq8xflthgH-53" value="" style="whiteSpace=wrap;html=1;aspect=fixed;" vertex="1" parent="1">
          <mxGeometry x="751" y="1145" width="30" height="30" as="geometry" />
        </mxCell>
        <mxCell id="IvysYTELjsWq8xflthgH-54" value="" style="whiteSpace=wrap;html=1;aspect=fixed;" vertex="1" parent="1">
          <mxGeometry x="782" y="1145" width="30" height="30" as="geometry" />
        </mxCell>
        <mxCell id="IvysYTELjsWq8xflthgH-55" value="" style="whiteSpace=wrap;html=1;aspect=fixed;" vertex="1" parent="1">
          <mxGeometry x="812" y="1145" width="30" height="30" as="geometry" />
        </mxCell>
        <mxCell id="IvysYTELjsWq8xflthgH-56" value="" style="whiteSpace=wrap;html=1;aspect=fixed;" vertex="1" parent="1">
          <mxGeometry x="842" y="1145" width="30" height="30" as="geometry" />
        </mxCell>
        <mxCell id="IvysYTELjsWq8xflthgH-57" value="" style="whiteSpace=wrap;html=1;aspect=fixed;" vertex="1" parent="1">
          <mxGeometry x="872" y="1145" width="30" height="30" as="geometry" />
        </mxCell>
        <mxCell id="IvysYTELjsWq8xflthgH-62" value="" style="whiteSpace=wrap;html=1;aspect=fixed;" vertex="1" parent="1">
          <mxGeometry x="56" y="1115" width="30" height="30" as="geometry" />
        </mxCell>
        <mxCell id="IvysYTELjsWq8xflthgH-63" value="" style="whiteSpace=wrap;html=1;aspect=fixed;" vertex="1" parent="1">
          <mxGeometry x="86" y="1115" width="30" height="30" as="geometry" />
        </mxCell>
        <mxCell id="IvysYTELjsWq8xflthgH-64" value="" style="whiteSpace=wrap;html=1;aspect=fixed;" vertex="1" parent="1">
          <mxGeometry x="86" y="1175" width="30" height="30" as="geometry" />
        </mxCell>
        <mxCell id="IvysYTELjsWq8xflthgH-65" value="" style="whiteSpace=wrap;html=1;aspect=fixed;" vertex="1" parent="1">
          <mxGeometry x="176" y="1115" width="30" height="30" as="geometry" />
        </mxCell>
        <mxCell id="IvysYTELjsWq8xflthgH-66" value="" style="whiteSpace=wrap;html=1;aspect=fixed;" vertex="1" parent="1">
          <mxGeometry x="267" y="1175" width="30" height="30" as="geometry" />
        </mxCell>
        <mxCell id="IvysYTELjsWq8xflthgH-67" value="" style="whiteSpace=wrap;html=1;aspect=fixed;" vertex="1" parent="1">
          <mxGeometry x="298" y="1115" width="30" height="30" as="geometry" />
        </mxCell>
        <mxCell id="IvysYTELjsWq8xflthgH-68" value="" style="whiteSpace=wrap;html=1;aspect=fixed;" vertex="1" parent="1">
          <mxGeometry x="298" y="1175" width="30" height="30" as="geometry" />
        </mxCell>
        <mxCell id="IvysYTELjsWq8xflthgH-69" value="" style="whiteSpace=wrap;html=1;aspect=fixed;" vertex="1" parent="1">
          <mxGeometry x="298" y="1205" width="30" height="30" as="geometry" />
        </mxCell>
        <mxCell id="IvysYTELjsWq8xflthgH-70" value="" style="whiteSpace=wrap;html=1;aspect=fixed;" vertex="1" parent="1">
          <mxGeometry x="298" y="1087" width="30" height="30" as="geometry" />
        </mxCell>
        <mxCell id="IvysYTELjsWq8xflthgH-71" value="" style="whiteSpace=wrap;html=1;aspect=fixed;" vertex="1" parent="1">
          <mxGeometry x="298" y="1235" width="30" height="30" as="geometry" />
        </mxCell>
        <mxCell id="IvysYTELjsWq8xflthgH-72" value="" style="whiteSpace=wrap;html=1;aspect=fixed;" vertex="1" parent="1">
          <mxGeometry x="298" y="1057" width="30" height="30" as="geometry" />
        </mxCell>
        <mxCell id="IvysYTELjsWq8xflthgH-73" value="" style="whiteSpace=wrap;html=1;aspect=fixed;" vertex="1" parent="1">
          <mxGeometry x="358" y="1115" width="30" height="30" as="geometry" />
        </mxCell>
        <mxCell id="IvysYTELjsWq8xflthgH-74" value="" style="whiteSpace=wrap;html=1;aspect=fixed;" vertex="1" parent="1">
          <mxGeometry x="358" y="1175" width="30" height="30" as="geometry" />
        </mxCell>
        <mxCell id="IvysYTELjsWq8xflthgH-75" value="" style="whiteSpace=wrap;html=1;aspect=fixed;" vertex="1" parent="1">
          <mxGeometry x="449" y="1115" width="30" height="30" as="geometry" />
        </mxCell>
        <mxCell id="IvysYTELjsWq8xflthgH-76" value="" style="whiteSpace=wrap;html=1;aspect=fixed;" vertex="1" parent="1">
          <mxGeometry x="449" y="1175" width="30" height="30" as="geometry" />
        </mxCell>
        <mxCell id="IvysYTELjsWq8xflthgH-77" value="" style="whiteSpace=wrap;html=1;aspect=fixed;" vertex="1" parent="1">
          <mxGeometry x="449" y="1205" width="30" height="30" as="geometry" />
        </mxCell>
        <mxCell id="IvysYTELjsWq8xflthgH-78" value="" style="whiteSpace=wrap;html=1;aspect=fixed;" vertex="1" parent="1">
          <mxGeometry x="449" y="1235" width="30" height="30" as="geometry" />
        </mxCell>
        <mxCell id="IvysYTELjsWq8xflthgH-79" value="" style="whiteSpace=wrap;html=1;aspect=fixed;" vertex="1" parent="1">
          <mxGeometry x="449" y="1085" width="30" height="30" as="geometry" />
        </mxCell>
        <mxCell id="IvysYTELjsWq8xflthgH-80" value="" style="whiteSpace=wrap;html=1;aspect=fixed;" vertex="1" parent="1">
          <mxGeometry x="449" y="1055" width="30" height="30" as="geometry" />
        </mxCell>
        <mxCell id="IvysYTELjsWq8xflthgH-81" value="" style="whiteSpace=wrap;html=1;aspect=fixed;" vertex="1" parent="1">
          <mxGeometry x="479" y="1115" width="30" height="30" as="geometry" />
        </mxCell>
        <mxCell id="IvysYTELjsWq8xflthgH-82" value="" style="whiteSpace=wrap;html=1;aspect=fixed;" vertex="1" parent="1">
          <mxGeometry x="479" y="1175" width="30" height="30" as="geometry" />
        </mxCell>
        <mxCell id="IvysYTELjsWq8xflthgH-83" value="" style="whiteSpace=wrap;html=1;aspect=fixed;" vertex="1" parent="1">
          <mxGeometry x="479" y="1205" width="30" height="30" as="geometry" />
        </mxCell>
        <mxCell id="IvysYTELjsWq8xflthgH-84" value="" style="whiteSpace=wrap;html=1;aspect=fixed;" vertex="1" parent="1">
          <mxGeometry x="479" y="1235" width="30" height="30" as="geometry" />
        </mxCell>
        <mxCell id="IvysYTELjsWq8xflthgH-85" value="" style="whiteSpace=wrap;html=1;aspect=fixed;" vertex="1" parent="1">
          <mxGeometry x="479" y="1085" width="30" height="30" as="geometry" />
        </mxCell>
        <mxCell id="IvysYTELjsWq8xflthgH-86" value="" style="whiteSpace=wrap;html=1;aspect=fixed;" vertex="1" parent="1">
          <mxGeometry x="479" y="1055" width="30" height="30" as="geometry" />
        </mxCell>
        <mxCell id="IvysYTELjsWq8xflthgH-87" value="" style="whiteSpace=wrap;html=1;aspect=fixed;" vertex="1" parent="1">
          <mxGeometry x="479" y="1025" width="30" height="30" as="geometry" />
        </mxCell>
        <mxCell id="IvysYTELjsWq8xflthgH-88" value="" style="whiteSpace=wrap;html=1;aspect=fixed;" vertex="1" parent="1">
          <mxGeometry x="479" y="1265" width="30" height="30" as="geometry" />
        </mxCell>
        <mxCell id="IvysYTELjsWq8xflthgH-89" value="" style="whiteSpace=wrap;html=1;aspect=fixed;" vertex="1" parent="1">
          <mxGeometry x="479" y="1295" width="30" height="30" as="geometry" />
        </mxCell>
        <mxCell id="IvysYTELjsWq8xflthgH-90" value="" style="whiteSpace=wrap;html=1;aspect=fixed;" vertex="1" parent="1">
          <mxGeometry x="479" y="995" width="30" height="30" as="geometry" />
        </mxCell>
        <mxCell id="IvysYTELjsWq8xflthgH-91" value="" style="whiteSpace=wrap;html=1;aspect=fixed;" vertex="1" parent="1">
          <mxGeometry x="479" y="1325" width="30" height="30" as="geometry" />
        </mxCell>
        <mxCell id="IvysYTELjsWq8xflthgH-92" value="" style="whiteSpace=wrap;html=1;aspect=fixed;" vertex="1" parent="1">
          <mxGeometry x="479" y="965" width="30" height="30" as="geometry" />
        </mxCell>
        <mxCell id="IvysYTELjsWq8xflthgH-105" value="" style="whiteSpace=wrap;html=1;aspect=fixed;" vertex="1" parent="1">
          <mxGeometry x="509" y="1115" width="30" height="30" as="geometry" />
        </mxCell>
        <mxCell id="IvysYTELjsWq8xflthgH-106" value="" style="whiteSpace=wrap;html=1;aspect=fixed;" vertex="1" parent="1">
          <mxGeometry x="509" y="1175" width="30" height="30" as="geometry" />
        </mxCell>
        <mxCell id="IvysYTELjsWq8xflthgH-107" value="" style="whiteSpace=wrap;html=1;aspect=fixed;" vertex="1" parent="1">
          <mxGeometry x="509" y="1205" width="30" height="30" as="geometry" />
        </mxCell>
        <mxCell id="IvysYTELjsWq8xflthgH-108" value="" style="whiteSpace=wrap;html=1;aspect=fixed;" vertex="1" parent="1">
          <mxGeometry x="509" y="1235" width="30" height="30" as="geometry" />
        </mxCell>
        <mxCell id="IvysYTELjsWq8xflthgH-109" value="" style="whiteSpace=wrap;html=1;aspect=fixed;" vertex="1" parent="1">
          <mxGeometry x="509" y="1085" width="30" height="30" as="geometry" />
        </mxCell>
        <mxCell id="IvysYTELjsWq8xflthgH-110" value="" style="whiteSpace=wrap;html=1;aspect=fixed;" vertex="1" parent="1">
          <mxGeometry x="509" y="1055" width="30" height="30" as="geometry" />
        </mxCell>
        <mxCell id="IvysYTELjsWq8xflthgH-111" value="" style="whiteSpace=wrap;html=1;aspect=fixed;" vertex="1" parent="1">
          <mxGeometry x="509" y="1025" width="30" height="30" as="geometry" />
        </mxCell>
        <mxCell id="IvysYTELjsWq8xflthgH-112" value="" style="whiteSpace=wrap;html=1;aspect=fixed;" vertex="1" parent="1">
          <mxGeometry x="509" y="1265" width="30" height="30" as="geometry" />
        </mxCell>
        <mxCell id="IvysYTELjsWq8xflthgH-113" value="" style="whiteSpace=wrap;html=1;aspect=fixed;" vertex="1" parent="1">
          <mxGeometry x="509" y="1295" width="30" height="30" as="geometry" />
        </mxCell>
        <mxCell id="IvysYTELjsWq8xflthgH-114" value="" style="whiteSpace=wrap;html=1;aspect=fixed;" vertex="1" parent="1">
          <mxGeometry x="509" y="995" width="30" height="30" as="geometry" />
        </mxCell>
        <mxCell id="IvysYTELjsWq8xflthgH-115" value="" style="whiteSpace=wrap;html=1;aspect=fixed;" vertex="1" parent="1">
          <mxGeometry x="509" y="1325" width="30" height="30" as="geometry" />
        </mxCell>
        <mxCell id="IvysYTELjsWq8xflthgH-116" value="" style="whiteSpace=wrap;html=1;aspect=fixed;" vertex="1" parent="1">
          <mxGeometry x="509" y="965" width="30" height="30" as="geometry" />
        </mxCell>
        <mxCell id="IvysYTELjsWq8xflthgH-117" value="" style="whiteSpace=wrap;html=1;aspect=fixed;" vertex="1" parent="1">
          <mxGeometry x="509" y="935" width="30" height="30" as="geometry" />
        </mxCell>
        <mxCell id="IvysYTELjsWq8xflthgH-118" value="" style="whiteSpace=wrap;html=1;aspect=fixed;" vertex="1" parent="1">
          <mxGeometry x="509" y="1355" width="30" height="30" as="geometry" />
        </mxCell>
        <mxCell id="IvysYTELjsWq8xflthgH-120" value="" style="whiteSpace=wrap;html=1;aspect=fixed;" vertex="1" parent="1">
          <mxGeometry x="509" y="905" width="30" height="30" as="geometry" />
        </mxCell>
        <mxCell id="IvysYTELjsWq8xflthgH-121" value="" style="whiteSpace=wrap;html=1;aspect=fixed;" vertex="1" parent="1">
          <mxGeometry x="509" y="1385" width="30" height="30" as="geometry" />
        </mxCell>
        <mxCell id="IvysYTELjsWq8xflthgH-122" value="" style="whiteSpace=wrap;html=1;aspect=fixed;" vertex="1" parent="1">
          <mxGeometry x="570" y="1115" width="30" height="30" as="geometry" />
        </mxCell>
        <mxCell id="IvysYTELjsWq8xflthgH-123" value="" style="whiteSpace=wrap;html=1;aspect=fixed;" vertex="1" parent="1">
          <mxGeometry x="630" y="1115" width="30" height="30" as="geometry" />
        </mxCell>
        <mxCell id="IvysYTELjsWq8xflthgH-125" value="" style="whiteSpace=wrap;html=1;aspect=fixed;" vertex="1" parent="1">
          <mxGeometry x="661" y="1115" width="30" height="30" as="geometry" />
        </mxCell>
        <mxCell id="IvysYTELjsWq8xflthgH-126" value="" style="whiteSpace=wrap;html=1;aspect=fixed;" vertex="1" parent="1">
          <mxGeometry x="661" y="1175" width="30" height="30" as="geometry" />
        </mxCell>
        <mxCell id="IvysYTELjsWq8xflthgH-127" value="" style="whiteSpace=wrap;html=1;aspect=fixed;" vertex="1" parent="1">
          <mxGeometry x="661" y="1085" width="30" height="30" as="geometry" />
        </mxCell>
        <mxCell id="IvysYTELjsWq8xflthgH-128" value="" style="whiteSpace=wrap;html=1;aspect=fixed;" vertex="1" parent="1">
          <mxGeometry x="691" y="1115" width="30" height="30" as="geometry" />
        </mxCell>
        <mxCell id="IvysYTELjsWq8xflthgH-129" value="" style="whiteSpace=wrap;html=1;aspect=fixed;" vertex="1" parent="1">
          <mxGeometry x="812" y="1115" width="30" height="30" as="geometry" />
        </mxCell>
        <mxCell id="IvysYTELjsWq8xflthgH-130" value="" style="shape=curlyBracket;whiteSpace=wrap;html=1;rounded=1;flipH=1;labelPosition=right;verticalLabelPosition=middle;align=left;verticalAlign=middle;fillColor=#f8cecc;strokeColor=#b85450;" vertex="1" parent="1">
          <mxGeometry x="548" y="1295" width="20" height="135" as="geometry" />
        </mxCell>
        <mxCell id="IvysYTELjsWq8xflthgH-131" value="How to navigate beyond this?" style="text;html=1;align=center;verticalAlign=middle;whiteSpace=wrap;rounded=0;rotation=90;fillColor=#f8cecc;strokeColor=#b85450;" vertex="1" parent="1">
          <mxGeometry x="493" y="1321" width="184" height="30" as="geometry" />
        </mxCell>
      </root>
    </mxGraphModel>
  </diagram>
</mxfile>
